<svg xmlns="http://www.w3.org/2000/svg" xmlns:xlink="http://www.w3.org/1999/xlink" width="500" zoomAndPan="magnify" viewBox="0 0 375 374.999991" height="500" preserveAspectRatio="xMidYMid meet" version="1.0"><defs><clipPath id="61ec7de1a9"><path d="M 12.007812 19.265625 L 363 19.265625 L 363 341.015625 L 12.007812 341.015625 Z M 12.007812 19.265625 " clip-rule="nonzero"/></clipPath></defs><rect x="-37.5" width="450" fill="#ffffff" y="-37.499999" height="449.999989" fill-opacity="1"/><rect x="-37.5" width="450" fill="#ffffff" y="-37.499999" height="449.999989" fill-opacity="1"/><g clip-path="url(#61ec7de1a9)"><path fill="#004aad" d="M 60.203125 173.835938 L 78.019531 142.976562 L 127.589844 57.117188 L 130.335938 52.359375 L 130.308594 52.339844 L 130.40625 52.164062 L 130.5 51.988281 L 133.097656 47.90625 L 135.296875 44.894531 L 137.515625 42.1875 C 137.707031 41.957031 137.910156 41.726562 138.113281 41.507812 L 142.054688 37.441406 L 145.109375 34.734375 C 145.945312 34.027344 146.808594 33.351562 147.667969 32.699219 L 149.535156 31.34375 L 151.550781 29.988281 L 153.742188 28.636719 L 154.910156 27.957031 L 160.417969 25.175781 L 163.5 23.890625 C 164.765625 23.398438 166.042969 22.949219 167.328125 22.535156 L 170.40625 21.628906 L 175.398438 20.496094 C 176.875 20.222656 178.351562 19.992188 179.847656 19.816406 C 187.628906 18.902344 195.328125 19.367188 202.949219 21.171875 C 205.886719 21.875 208.753906 22.78125 211.570312 23.882812 L 213.277344 24.578125 L 217.582031 26.59375 L 221.285156 28.671875 L 221.339844 28.707031 L 221.867188 29.03125 L 223.800781 30.253906 L 226.273438 31.953125 L 228.167969 33.367188 L 229.039062 34.0625 L 232.328125 36.90625 L 235.59375 40.152344 C 235.804688 40.382812 236.015625 40.601562 236.21875 40.832031 L 237.414062 42.1875 L 237.660156 42.46875 L 238.789062 43.824219 L 239.703125 44.984375 L 241.144531 46.9375 L 242.660156 49.164062 L 244.234375 51.691406 L 245.0625 53.148438 L 245.765625 54.398438 L 353.410156 240.835938 L 353.964844 241.679688 L 354.710938 243.035156 L 355.328125 244.25 L 355.46875 244.511719 L 357.308594 248.3125 L 357.316406 248.332031 L 358.707031 251.703125 C 358.796875 251.929688 358.875 252.152344 358.964844 252.378906 L 359.472656 253.832031 L 360.871094 258.484375 C 360.933594 258.714844 360.988281 258.933594 361.046875 259.164062 L 362.042969 263.90625 C 362.078125 264.136719 362.121094 264.355469 362.15625 264.585938 L 362.570312 267.59375 L 362.746094 269.328125 C 362.765625 269.554688 362.78125 269.785156 362.800781 270.003906 L 362.984375 274.746094 C 362.984375 274.976562 362.984375 275.207031 362.984375 275.425781 L 362.78125 280.167969 C 362.765625 280.398438 362.746094 280.617188 362.730469 280.847656 L 362.597656 282.199219 L 361.902344 286.945312 C 361.859375 287.171875 361.8125 287.394531 361.777344 287.621094 L 361.410156 289.390625 L 360.089844 294.398438 L 359.878906 295.074219 L 359.191406 297.105469 L 358.664062 298.550781 C 357.773438 300.890625 356.691406 303.300781 355.539062 305.519531 L 352.265625 311.132812 L 350.542969 313.648438 L 349.230469 315.410156 C 349.054688 315.640625 348.878906 315.867188 348.703125 316.085938 L 344.558594 320.832031 C 344.339844 321.058594 344.117188 321.289062 343.898438 321.507812 L 341.046875 324.21875 C 340.273438 324.914062 339.480469 325.589844 338.664062 326.25 L 336.9375 327.605469 L 336.03125 328.285156 C 335.398438 328.75 334.753906 329.199219 334.113281 329.640625 L 331.085938 331.617188 L 328.613281 333.019531 L 326.640625 334.046875 C 323.652344 335.542969 320.824219 336.730469 317.621094 337.789062 C 316.066406 338.296875 314.5 338.753906 312.925781 339.140625 L 309.898438 339.820312 C 308.542969 340.09375 307.179688 340.3125 305.8125 340.496094 C 299.980469 341.261719 294.261719 341.28125 288.355469 340.496094 L 288.347656 340.496094 L 284.113281 339.792969 C 280.226562 339.019531 276.398438 337.894531 272.710938 336.433594 L 267.535156 334.125 L 264.226562 332.359375 L 260.902344 330.324219 L 257.960938 328.292969 L 256.675781 327.332031 L 252.945312 324.226562 L 252.101562 323.453125 L 250.09375 321.515625 C 249.875 321.289062 249.65625 321.066406 249.4375 320.839844 L 246.398438 317.453125 C 246.214844 317.222656 246.019531 317.003906 245.835938 316.773438 L 244.761719 315.417969 L 244.375 314.917969 L 242.785156 312.707031 L 242.5625 312.390625 L 240.75 309.601562 L 240.628906 309.417969 L 239.332031 307.28125 L 238.558594 305.925781 L 179.179688 203.074219 L 166.527344 181.164062 L 163.835938 176.421875 C 163.730469 176.203125 163.621094 175.972656 163.527344 175.746094 L 163.261719 175.074219 L 162.53125 172.355469 C 162.496094 172.128906 162.460938 171.90625 162.425781 171.679688 C 162.285156 170.5625 162.269531 169.410156 162.375 168.292969 C 162.390625 168.0625 162.417969 167.84375 162.453125 167.613281 L 162.550781 167.023438 L 163.324219 164.21875 C 163.410156 163.988281 163.5 163.761719 163.597656 163.539062 L 163.914062 162.863281 C 164.027344 162.632812 164.140625 162.40625 164.265625 162.183594 L 165.621094 160.152344 C 165.804688 159.921875 165.988281 159.695312 166.183594 159.472656 C 167.089844 158.445312 168.171875 157.511719 169.34375 156.765625 L 170.125 156.289062 C 171.367188 155.585938 172.667969 155.066406 173.988281 154.730469 L 173.996094 154.730469 C 176.503906 154.097656 179.09375 154.125 181.53125 154.730469 L 183.597656 155.410156 C 184.503906 155.777344 185.375 156.226562 186.203125 156.765625 C 186.828125 157.167969 187.425781 157.625 187.988281 158.121094 C 188.464844 158.542969 188.921875 158.992188 189.34375 159.472656 C 189.539062 159.695312 189.722656 159.914062 189.90625 160.152344 L 191.261719 162.183594 L 206.519531 188.609375 L 266.566406 292.609375 L 266.542969 292.628906 L 267.203125 293.71875 C 267.34375 293.949219 267.492188 294.175781 267.632812 294.398438 L 268.890625 296.175781 L 271.398438 299.140625 L 272.058594 299.816406 C 272.773438 300.53125 273.511719 301.207031 274.277344 301.851562 L 275.621094 302.921875 L 277.832031 304.464844 L 281.675781 306.609375 C 283.359375 307.421875 285.125 308.097656 286.921875 308.632812 C 289.210938 309.320312 291.558594 309.769531 293.933594 309.988281 C 296.511719 310.226562 299.117188 310.183594 301.695312 309.847656 L 304.792969 309.304688 C 305.65625 309.109375 306.519531 308.890625 307.371094 308.625 C 309.617188 307.9375 311.78125 307.03125 313.839844 305.914062 C 314.015625 305.820312 314.199219 305.722656 314.375 305.617188 L 315.027344 305.238281 L 317.121094 303.882812 L 318.054688 303.207031 C 318.335938 302.992188 318.617188 302.78125 318.890625 302.5625 L 320.519531 301.171875 L 321.46875 300.273438 L 323.191406 298.460938 C 323.386719 298.242188 323.589844 298.011719 323.773438 297.785156 L 325.347656 295.753906 L 326.089844 294.6875 L 326.710938 293.71875 L 327.875 291.6875 L 328.5625 290.332031 C 328.667969 290.101562 328.773438 289.882812 328.878906 289.652344 L 329.722656 287.621094 L 330.425781 285.589844 L 330.820312 284.234375 L 331 283.554688 L 331.304688 282.199219 C 331.351562 281.972656 331.394531 281.753906 331.4375 281.523438 L 331.914062 278.136719 C 331.957031 277.6875 331.984375 277.230469 332.011719 276.78125 C 332.019531 276.550781 332.027344 276.332031 332.035156 276.101562 C 332.054688 275.652344 332.0625 275.195312 332.054688 274.746094 L 331.878906 271.359375 C 331.835938 270.910156 331.78125 270.453125 331.71875 270.003906 C 331.683594 269.777344 331.65625 269.546875 331.613281 269.328125 L 331.367188 267.972656 L 330.503906 264.585938 L 330.054688 263.230469 C 329.976562 263 329.890625 262.773438 329.808594 262.550781 C 329.554688 261.867188 329.273438 261.1875 328.964844 260.519531 L 327.960938 258.484375 L 327.59375 257.808594 L 327.207031 257.132812 L 219.164062 69.992188 L 217.960938 67.960938 C 217.828125 67.730469 217.695312 67.511719 217.554688 67.28125 L 217.132812 66.605469 C 216.984375 66.375 216.832031 66.148438 216.683594 65.925781 L 216.21875 65.25 C 216.058594 65.019531 215.890625 64.792969 215.726562 64.570312 L 214.089844 62.539062 L 212.839844 61.183594 L 211.941406 60.285156 L 209.890625 58.464844 L 208.660156 57.496094 L 206.089844 55.746094 L 204.902344 55.042969 L 201.125 53.203125 L 197.0625 51.796875 L 193.585938 51.003906 C 189.511719 50.28125 185.304688 50.265625 181.179688 51.003906 L 178.167969 51.679688 C 175.773438 52.332031 173.460938 53.246094 171.261719 54.390625 L 170.019531 55.070312 L 168.761719 55.746094 L 166.199219 57.515625 L 164.695312 58.71875 C 163.09375 60.085938 161.625 61.570312 160.296875 63.199219 L 157.4375 67.265625 C 157.332031 67.449219 157.21875 67.632812 157.109375 67.820312 L 157.085938 67.800781 L 102.019531 163.1875 L 95.964844 173.675781 L 95.882812 173.816406 L 78.066406 204.675781 L 68.402344 221.40625 L 66.574219 224.574219 L 49.34375 254.414062 L 48.101562 256.566406 L 47.460938 257.730469 L 47.441406 257.722656 L 47.398438 257.800781 L 45.746094 261.1875 C 45.648438 261.417969 45.558594 261.636719 45.472656 261.867188 C 45.207031 262.535156 44.960938 263.21875 44.734375 263.898438 L 44.390625 265.023438 L 44.144531 265.941406 L 43.675781 267.972656 C 43.589844 268.421875 43.511719 268.878906 43.4375 269.328125 C 43.402344 269.554688 43.367188 269.777344 43.34375 270.003906 C 43.28125 270.453125 43.226562 270.910156 43.183594 271.359375 L 43.050781 273.394531 C 43.035156 273.839844 43.027344 274.300781 43.027344 274.746094 C 43.027344 274.976562 43.027344 275.195312 43.035156 275.425781 L 43.085938 276.78125 L 43.226562 278.496094 L 43.449219 280.167969 C 43.484375 280.398438 43.519531 280.625 43.5625 280.847656 L 43.828125 282.199219 L 44.144531 283.554688 L 44.320312 284.234375 C 44.382812 284.460938 44.441406 284.683594 44.511719 284.910156 L 45.4375 287.621094 L 46.289062 289.652344 C 46.394531 289.882812 46.5 290.101562 46.605469 290.332031 L 46.941406 291.007812 C 47.054688 291.238281 47.179688 291.457031 47.292969 291.6875 L 48.058594 293.042969 L 49.316406 295.011719 L 50.875 297.105469 L 52.652344 299.148438 C 52.863281 299.378906 53.082031 299.605469 53.3125 299.828125 C 54.015625 300.53125 54.753906 301.207031 55.519531 301.859375 L 57.238281 303.214844 L 58.363281 304.015625 L 59.207031 304.570312 L 61.59375 305.925781 C 62.535156 306.425781 63.484375 306.875 64.445312 307.28125 C 69.800781 309.53125 75.636719 310.375 81.417969 309.804688 C 82.542969 309.691406 83.660156 309.53125 84.78125 309.3125 L 87.628906 308.632812 L 88.484375 308.386719 L 92.066406 307.066406 C 93.703125 306.375 95.339844 305.511719 96.851562 304.570312 L 98.867188 303.214844 L 102.167969 300.503906 L 102.871094 299.828125 L 104.164062 298.472656 L 104.832031 297.714844 L 105.328125 297.117188 L 107.324219 294.40625 L 108.582031 292.375 C 108.835938 291.925781 109.082031 291.476562 109.320312 291.019531 L 109.980469 289.664062 L 110.253906 289.046875 L 110.800781 287.734375 L 111.777344 284.921875 L 112.472656 282.210938 C 112.515625 281.980469 112.566406 281.761719 112.601562 281.53125 L 112.832031 280.175781 L 113.078125 278.144531 L 113.167969 276.972656 L 113.175781 276.78125 L 113.21875 275.425781 C 113.21875 275.195312 113.21875 274.976562 113.21875 274.746094 L 113.027344 271.359375 C 113 271.132812 112.972656 270.902344 112.945312 270.683594 L 112.859375 270.023438 L 112.347656 267.285156 C 112.296875 267.058594 112.242188 266.835938 112.191406 266.609375 L 111.820312 265.253906 C 111.6875 264.796875 111.546875 264.347656 111.398438 263.898438 L 110.914062 262.542969 L 110.367188 261.1875 L 109.214844 258.785156 L 109.894531 259.957031 L 107.199219 255.210938 C 107.09375 254.992188 106.988281 254.765625 106.890625 254.535156 L 106.628906 253.867188 L 105.898438 251.148438 C 105.863281 250.917969 105.828125 250.699219 105.792969 250.46875 C 105.652344 249.351562 105.632812 248.199219 105.738281 247.082031 C 105.757812 246.851562 105.785156 246.632812 105.820312 246.40625 L 105.914062 245.816406 L 106.691406 243.007812 C 106.75 242.769531 106.867188 242.550781 106.964844 242.332031 L 107.28125 241.652344 C 107.386719 241.425781 107.507812 241.195312 107.632812 240.976562 L 108.988281 238.941406 C 109.171875 238.714844 109.355469 238.484375 109.550781 238.265625 C 110.457031 237.234375 111.539062 236.304688 112.710938 235.554688 L 113.492188 235.078125 C 114.734375 234.375 116.035156 233.855469 117.355469 233.523438 L 117.363281 233.523438 C 119.871094 232.886719 122.457031 232.914062 124.894531 233.523438 L 126.964844 234.199219 C 127.886719 234.5 128.742188 235.019531 129.570312 235.554688 C 130.195312 235.960938 130.792969 236.417969 131.355469 236.910156 C 131.832031 237.332031 132.289062 237.78125 132.710938 238.265625 C 132.902344 238.484375 133.089844 238.703125 133.273438 238.941406 L 134.628906 240.976562 L 136.863281 244.847656 L 137.25 245.605469 C 137.585938 246.273438 137.902344 246.949219 138.210938 247.636719 L 138.660156 248.65625 L 139.089844 249.679688 C 139.371094 250.355469 139.636719 251.03125 139.890625 251.710938 L 140.191406 252.539062 L 140.613281 253.742188 L 141.261719 255.777344 C 141.332031 256.003906 141.394531 256.226562 141.464844 256.453125 C 141.660156 257.132812 141.84375 257.808594 142.019531 258.484375 C 142.082031 258.714844 142.132812 258.933594 142.1875 259.164062 L 142.652344 261.195312 C 142.699219 261.425781 142.75 261.644531 142.792969 261.875 L 143.171875 263.90625 L 143.578125 266.617188 C 143.605469 266.847656 143.628906 267.066406 143.65625 267.292969 L 143.859375 269.328125 C 143.875 269.554688 143.894531 269.777344 143.910156 270.003906 L 144.0625 272.714844 L 144.0625 277.457031 C 144.054688 277.6875 144.042969 277.90625 144.035156 278.136719 C 144 278.8125 143.964844 279.492188 143.910156 280.167969 C 143.894531 280.398438 143.875 280.617188 143.859375 280.84375 C 143.796875 281.523438 143.726562 282.199219 143.648438 282.878906 C 143.621094 283.105469 143.59375 283.328125 143.558594 283.554688 C 143.472656 284.234375 143.375 284.910156 143.261719 285.589844 C 143.226562 285.816406 143.191406 286.039062 143.144531 286.265625 L 142.757812 288.296875 L 142.144531 291.007812 L 141.597656 293.042969 L 140.980469 295.074219 C 140.910156 295.304688 140.832031 295.523438 140.761719 295.753906 C 140.53125 296.429688 140.296875 297.105469 140.050781 297.785156 L 139.660156 298.804688 L 138.394531 301.859375 C 138.296875 302.085938 138.191406 302.308594 138.085938 302.535156 L 137.109375 304.570312 C 136.882812 305.027344 136.652344 305.476562 136.40625 305.925781 L 135.261719 307.992188 L 133.195312 311.34375 C 133.042969 311.574219 132.894531 311.792969 132.746094 312.023438 L 131.3125 314.054688 L 129.605469 316.28125 L 129.394531 316.535156 L 128.074219 318.121094 C 127.878906 318.347656 127.675781 318.578125 127.484375 318.796875 L 126.875 319.476562 L 124.667969 321.789062 L 122.835938 323.539062 L 122.089844 324.21875 L 120.523438 325.574219 C 119.6875 326.277344 118.832031 326.953125 117.972656 327.605469 L 116.113281 328.960938 L 114.363281 330.148438 L 110.765625 332.347656 L 105.449219 335.058594 C 103.160156 336.097656 100.839844 337.003906 98.445312 337.769531 L 95.171875 338.738281 L 90.535156 339.800781 C 88.195312 340.25 85.835938 340.578125 83.449219 340.769531 C 78.925781 341.140625 74.449219 341.050781 69.910156 340.480469 C 67.222656 340.144531 65.050781 339.722656 62.527344 339.125 L 59.945312 338.4375 C 57.238281 337.664062 55 336.835938 52.246094 335.703125 L 47.980469 333.695312 L 44.179688 331.558594 L 44.109375 331.511719 L 41.328125 329.753906 L 39.207031 328.273438 C 38.601562 327.835938 38 327.386719 37.410156 326.917969 L 34.15625 324.210938 L 31.277344 321.5 C 31.058594 321.277344 30.828125 321.050781 30.609375 320.820312 L 27.546875 317.433594 C 27.355469 317.207031 27.167969 316.984375 26.984375 316.757812 L 25.902344 315.390625 L 25.664062 315.085938 L 23.4375 312.003906 L 22.539062 310.648438 C 22.390625 310.421875 22.25 310.199219 22.109375 309.972656 L 21.714844 309.339844 L 20.5 307.261719 L 20.121094 306.585938 L 18.773438 303.980469 L 17.128906 300.355469 L 16.109375 297.765625 L 15.394531 295.734375 C 15.316406 295.503906 15.246094 295.285156 15.175781 295.058594 L 14.753906 293.703125 L 14.261719 291.949219 L 13.539062 288.957031 C 13.484375 288.730469 13.441406 288.5 13.398438 288.28125 L 12.597656 283.539062 C 12.570312 283.308594 12.535156 283.089844 12.507812 282.859375 L 12.113281 278.117188 C 12.105469 277.890625 12.09375 277.667969 12.085938 277.441406 L 12.078125 272.699219 C 12.085938 272.46875 12.09375 272.238281 12.105469 272.019531 L 12.414062 267.953125 L 12.492188 267.277344 C 12.519531 267.046875 12.542969 266.828125 12.570312 266.597656 L 12.625 266.230469 L 13.097656 263.210938 C 13.144531 262.984375 13.1875 262.753906 13.222656 262.535156 L 14.320312 257.792969 C 14.382812 257.5625 14.445312 257.332031 14.507812 257.113281 L 14.964844 255.566406 L 16.046875 252.363281 C 16.125 252.132812 16.214844 251.914062 16.300781 251.683594 L 17.472656 248.796875 L 17.691406 248.289062 L 18.089844 247.417969 L 18.976562 245.578125 C 19.089844 245.347656 19.207031 245.128906 19.320312 244.898438 L 19.671875 244.222656 L 21.113281 241.625 L 21.097656 241.609375 L 21.582031 240.824219 L 53.292969 185.90625 L 60.078125 174.160156 L 60.289062 173.800781 Z M 60.203125 173.835938 " fill-opacity="1" fill-rule="evenodd"/></g></svg>