<svg xmlns="http://www.w3.org/2000/svg" xmlns:xlink="http://www.w3.org/1999/xlink" width="500" zoomAndPan="magnify" viewBox="0 0 375 374.999991" height="500" preserveAspectRatio="xMidYMid meet" version="1.0"><defs><g/><clipPath id="d1255073f7"><path d="M 71.007812 21.507812 L 304 21.507812 L 304 235.257812 L 71.007812 235.257812 Z M 71.007812 21.507812 " clip-rule="nonzero"/></clipPath></defs><rect x="-37.5" width="450" fill="#ffffff" y="-37.499999" height="449.999989" fill-opacity="1"/><rect x="-37.5" width="450" fill="#ffffff" y="-37.499999" height="449.999989" fill-opacity="1"/><g clip-path="url(#d1255073f7)"><path fill="#004aad" d="M 103 124.109375 L 114.828125 103.625 L 147.730469 46.632812 L 149.554688 43.472656 L 149.535156 43.460938 L 149.601562 43.34375 L 149.664062 43.226562 L 151.386719 40.515625 L 152.847656 38.515625 L 154.320312 36.71875 C 154.449219 36.566406 154.582031 36.414062 154.71875 36.269531 L 157.335938 33.570312 L 159.363281 31.769531 C 159.917969 31.304688 160.488281 30.855469 161.0625 30.421875 L 162.300781 29.523438 L 163.636719 28.621094 L 165.09375 27.722656 L 165.867188 27.273438 L 169.523438 25.425781 L 171.570312 24.574219 C 172.410156 24.246094 173.257812 23.949219 174.109375 23.675781 L 176.15625 23.074219 L 179.46875 22.320312 C 180.449219 22.140625 181.429688 21.988281 182.421875 21.871094 C 187.585938 21.261719 192.695312 21.574219 197.753906 22.769531 C 199.707031 23.238281 201.609375 23.839844 203.480469 24.570312 L 204.613281 25.03125 L 207.46875 26.367188 L 209.929688 27.746094 L 209.964844 27.769531 L 210.3125 27.984375 L 211.597656 28.796875 L 213.242188 29.925781 L 214.496094 30.867188 L 215.074219 31.328125 L 217.257812 33.214844 L 219.425781 35.367188 C 219.566406 35.519531 219.707031 35.667969 219.839844 35.820312 L 220.636719 36.71875 L 220.800781 36.90625 L 221.546875 37.804688 L 222.152344 38.574219 L 223.113281 39.871094 L 224.117188 41.351562 L 225.164062 43.027344 L 225.710938 43.996094 L 226.179688 44.824219 L 297.632812 168.582031 L 298 169.144531 L 298.5 170.042969 L 298.90625 170.847656 L 299 171.023438 L 300.222656 173.546875 L 300.226562 173.558594 L 301.148438 175.796875 C 301.207031 175.949219 301.261719 176.09375 301.320312 176.246094 L 301.65625 177.210938 L 302.585938 180.300781 C 302.628906 180.453125 302.664062 180.597656 302.703125 180.75 L 303.363281 183.898438 C 303.386719 184.050781 303.417969 184.195312 303.441406 184.347656 L 303.714844 186.34375 L 303.832031 187.496094 C 303.84375 187.648438 303.855469 187.800781 303.867188 187.945312 L 303.988281 191.09375 C 303.988281 191.246094 303.988281 191.398438 303.988281 191.542969 L 303.855469 194.691406 C 303.84375 194.84375 303.832031 194.992188 303.820312 195.140625 L 303.730469 196.042969 L 303.269531 199.191406 C 303.242188 199.34375 303.210938 199.488281 303.1875 199.640625 L 302.941406 200.8125 L 302.066406 204.136719 L 301.925781 204.585938 L 301.472656 205.9375 L 301.121094 206.894531 C 300.53125 208.449219 299.8125 210.050781 299.046875 211.519531 L 296.875 215.246094 L 295.730469 216.917969 L 294.859375 218.085938 C 294.742188 218.238281 294.625 218.390625 294.507812 218.535156 L 291.757812 221.683594 C 291.613281 221.835938 291.464844 221.988281 291.320312 222.132812 L 289.425781 223.933594 C 288.914062 224.394531 288.386719 224.84375 287.84375 225.28125 L 286.699219 226.183594 L 286.097656 226.632812 C 285.675781 226.941406 285.25 227.238281 284.824219 227.53125 L 282.816406 228.847656 L 281.171875 229.773438 L 279.863281 230.457031 C 277.878906 231.449219 276.003906 232.238281 273.878906 232.941406 C 272.84375 233.277344 271.804688 233.582031 270.757812 233.839844 L 268.75 234.289062 C 267.847656 234.472656 266.945312 234.617188 266.039062 234.738281 C 262.167969 235.246094 258.371094 235.257812 254.449219 234.738281 L 254.445312 234.738281 L 251.632812 234.273438 C 249.050781 233.757812 246.511719 233.011719 244.0625 232.039062 L 240.628906 230.511719 L 238.433594 229.335938 L 236.226562 227.988281 L 234.273438 226.636719 L 233.421875 226 L 230.945312 223.9375 L 230.382812 223.425781 L 229.050781 222.140625 C 228.90625 221.988281 228.761719 221.84375 228.613281 221.691406 L 226.597656 219.441406 C 226.476562 219.289062 226.347656 219.144531 226.226562 218.992188 L 225.511719 218.09375 L 225.253906 217.757812 L 224.199219 216.292969 L 224.050781 216.082031 L 222.847656 214.230469 L 222.765625 214.109375 L 221.910156 212.6875 L 221.394531 211.789062 L 181.980469 143.519531 L 173.578125 128.972656 L 171.792969 125.824219 C 171.722656 125.679688 171.652344 125.527344 171.585938 125.375 L 171.410156 124.929688 L 170.925781 123.125 C 170.902344 122.976562 170.878906 122.828125 170.855469 122.675781 C 170.761719 121.933594 170.753906 121.167969 170.820312 120.429688 C 170.832031 120.277344 170.851562 120.128906 170.875 119.976562 L 170.9375 119.585938 L 171.453125 117.722656 C 171.511719 117.570312 171.570312 117.417969 171.632812 117.273438 L 171.84375 116.824219 C 171.921875 116.671875 171.996094 116.519531 172.078125 116.375 L 172.976562 115.023438 C 173.101562 114.875 173.222656 114.722656 173.351562 114.574219 C 173.953125 113.890625 174.671875 113.273438 175.449219 112.777344 L 175.96875 112.460938 C 176.792969 111.992188 177.65625 111.648438 178.53125 111.425781 L 178.539062 111.425781 C 180.203125 111.007812 181.921875 111.023438 183.539062 111.425781 L 184.910156 111.875 C 185.511719 112.121094 186.089844 112.417969 186.640625 112.777344 C 187.054688 113.042969 187.453125 113.347656 187.824219 113.675781 C 188.140625 113.957031 188.445312 114.253906 188.726562 114.574219 C 188.855469 114.722656 188.976562 114.867188 189.097656 115.023438 L 190 116.375 L 200.128906 133.914062 L 239.988281 202.953125 L 239.96875 202.964844 L 240.40625 203.6875 C 240.5 203.839844 240.601562 203.992188 240.695312 204.136719 L 241.527344 205.316406 L 243.195312 207.285156 L 243.632812 207.734375 C 244.105469 208.207031 244.597656 208.660156 245.105469 209.085938 L 245.996094 209.796875 L 247.464844 210.820312 L 250.015625 212.246094 C 251.132812 212.78125 252.304688 213.230469 253.496094 213.589844 C 255.015625 214.042969 256.574219 214.34375 258.152344 214.488281 C 259.863281 214.644531 261.59375 214.617188 263.304688 214.394531 L 265.359375 214.03125 C 265.933594 213.902344 266.507812 213.757812 267.074219 213.582031 C 268.5625 213.128906 270 212.527344 271.367188 211.785156 C 271.484375 211.71875 271.605469 211.65625 271.722656 211.585938 L 272.15625 211.332031 L 273.542969 210.433594 L 274.164062 209.984375 C 274.351562 209.84375 274.539062 209.703125 274.71875 209.558594 L 275.800781 208.636719 L 276.429688 208.039062 L 277.574219 206.835938 C 277.703125 206.691406 277.839844 206.539062 277.960938 206.386719 L 279.007812 205.039062 L 279.496094 204.332031 L 279.910156 203.6875 L 280.683594 202.339844 L 281.136719 201.4375 C 281.207031 201.289062 281.277344 201.140625 281.347656 200.988281 L 281.910156 199.640625 L 282.375 198.289062 L 282.640625 197.390625 L 282.757812 196.941406 L 282.960938 196.042969 C 282.988281 195.890625 283.019531 195.742188 283.046875 195.59375 L 283.363281 193.34375 C 283.394531 193.046875 283.410156 192.742188 283.429688 192.445312 C 283.433594 192.292969 283.441406 192.144531 283.445312 191.992188 C 283.457031 191.695312 283.464844 191.390625 283.457031 191.09375 L 283.339844 188.84375 C 283.3125 188.546875 283.277344 188.242188 283.234375 187.945312 C 283.210938 187.792969 283.195312 187.640625 283.164062 187.496094 L 283 186.597656 L 282.429688 184.347656 L 282.132812 183.449219 C 282.078125 183.296875 282.019531 183.144531 281.96875 183 C 281.796875 182.542969 281.609375 182.09375 281.40625 181.648438 L 280.742188 180.300781 L 280.496094 179.851562 L 280.238281 179.402344 L 208.519531 55.175781 L 207.71875 53.828125 C 207.632812 53.675781 207.546875 53.527344 207.453125 53.378906 L 207.171875 52.925781 C 207.070312 52.777344 206.972656 52.625 206.875 52.476562 L 206.5625 52.027344 C 206.457031 51.875 206.347656 51.722656 206.238281 51.578125 L 205.152344 50.230469 L 204.320312 49.328125 L 203.726562 48.734375 L 202.363281 47.523438 L 201.546875 46.882812 L 199.839844 45.71875 L 199.050781 45.253906 L 196.546875 44.03125 L 193.847656 43.097656 L 191.539062 42.570312 C 188.835938 42.09375 186.042969 42.082031 183.304688 42.570312 L 181.308594 43.019531 C 179.71875 43.453125 178.183594 44.0625 176.722656 44.820312 L 175.898438 45.269531 L 175.0625 45.71875 L 173.363281 46.894531 L 172.363281 47.695312 C 171.300781 48.597656 170.324219 49.585938 169.445312 50.667969 L 167.546875 53.367188 C 167.476562 53.488281 167.398438 53.609375 167.328125 53.734375 L 167.3125 53.722656 L 130.757812 117.039062 L 126.738281 124.003906 L 126.6875 124.097656 L 114.859375 144.582031 L 108.445312 155.683594 L 107.230469 157.789062 L 95.792969 177.59375 L 94.96875 179.027344 L 94.542969 179.796875 L 94.53125 179.792969 L 94.5 179.84375 L 93.402344 182.09375 C 93.339844 182.246094 93.28125 182.390625 93.222656 182.542969 C 93.046875 182.988281 92.882812 183.441406 92.730469 183.890625 L 92.503906 184.640625 L 92.339844 185.246094 L 92.03125 186.597656 C 91.972656 186.894531 91.917969 187.199219 91.871094 187.496094 C 91.847656 187.648438 91.824219 187.792969 91.808594 187.945312 C 91.769531 188.242188 91.734375 188.546875 91.703125 188.84375 L 91.617188 190.195312 C 91.605469 190.492188 91.597656 190.796875 91.597656 191.09375 C 91.597656 191.246094 91.597656 191.390625 91.605469 191.542969 L 91.640625 192.445312 L 91.734375 193.582031 L 91.878906 194.691406 C 91.902344 194.84375 91.925781 194.996094 91.953125 195.140625 L 92.128906 196.042969 L 92.339844 196.941406 L 92.457031 197.390625 C 92.496094 197.542969 92.539062 197.6875 92.585938 197.839844 L 93.199219 199.640625 L 93.765625 200.988281 C 93.835938 201.140625 93.90625 201.289062 93.976562 201.4375 L 94.199219 201.890625 C 94.273438 202.039062 94.355469 202.1875 94.429688 202.339844 L 94.941406 203.238281 L 95.773438 204.546875 L 96.808594 205.9375 L 97.988281 207.292969 C 98.128906 207.445312 98.273438 207.59375 98.425781 207.742188 C 98.894531 208.207031 99.382812 208.660156 99.894531 209.089844 L 101.03125 209.992188 L 101.78125 210.523438 L 102.339844 210.890625 L 103.921875 211.789062 C 104.546875 212.121094 105.179688 212.421875 105.816406 212.6875 C 109.371094 214.183594 113.246094 214.746094 117.082031 214.367188 C 117.832031 214.289062 118.574219 214.183594 119.316406 214.039062 L 121.207031 213.589844 L 121.773438 213.425781 L 124.152344 212.550781 C 125.238281 212.085938 126.324219 211.515625 127.328125 210.890625 L 128.667969 209.992188 L 130.855469 208.191406 L 131.324219 207.742188 L 132.183594 206.84375 L 132.625 206.339844 L 132.953125 205.941406 L 134.28125 204.144531 L 135.113281 202.792969 C 135.285156 202.496094 135.449219 202.199219 135.605469 201.894531 L 136.042969 200.996094 L 136.226562 200.585938 L 136.585938 199.714844 L 137.234375 197.847656 L 137.695312 196.046875 C 137.726562 195.894531 137.761719 195.75 137.785156 195.597656 L 137.9375 194.699219 L 138.101562 193.347656 L 138.160156 192.570312 L 138.164062 192.445312 L 138.191406 191.542969 C 138.191406 191.390625 138.191406 191.246094 138.191406 191.09375 L 138.066406 188.84375 C 138.046875 188.695312 138.03125 188.542969 138.011719 188.394531 L 137.953125 187.957031 L 137.613281 186.140625 C 137.578125 185.988281 137.542969 185.84375 137.511719 185.691406 L 137.265625 184.792969 C 137.175781 184.488281 137.082031 184.191406 136.984375 183.890625 L 136.664062 182.992188 L 136.300781 182.09375 L 135.535156 180.5 L 135.984375 181.277344 L 134.199219 178.128906 C 134.128906 177.980469 134.058594 177.828125 133.992188 177.675781 L 133.816406 177.234375 L 133.332031 175.429688 C 133.308594 175.277344 133.285156 175.128906 133.261719 174.980469 C 133.167969 174.238281 133.15625 173.472656 133.226562 172.730469 C 133.238281 172.578125 133.257812 172.433594 133.28125 172.28125 L 133.34375 171.886719 L 133.859375 170.023438 C 133.898438 169.867188 133.976562 169.722656 134.039062 169.574219 L 134.25 169.125 C 134.320312 168.972656 134.402344 168.820312 134.484375 168.675781 L 135.382812 167.328125 C 135.507812 167.175781 135.628906 167.023438 135.757812 166.875 C 136.359375 166.195312 137.078125 165.574219 137.855469 165.078125 L 138.375 164.761719 C 139.199219 164.296875 140.0625 163.949219 140.9375 163.730469 L 140.945312 163.730469 C 142.609375 163.308594 144.328125 163.324219 145.945312 163.730469 L 147.316406 164.179688 C 147.929688 164.375 148.496094 164.722656 149.046875 165.078125 C 149.460938 165.347656 149.859375 165.648438 150.230469 165.976562 C 150.546875 166.257812 150.851562 166.554688 151.132812 166.875 C 151.261719 167.023438 151.382812 167.167969 151.503906 167.328125 L 152.40625 168.675781 L 153.886719 171.246094 L 154.144531 171.75 C 154.367188 172.191406 154.578125 172.640625 154.78125 173.097656 L 155.078125 173.773438 L 155.367188 174.453125 C 155.554688 174.902344 155.726562 175.351562 155.898438 175.800781 L 156.097656 176.351562 L 156.375 177.152344 L 156.808594 178.5 C 156.855469 178.652344 156.898438 178.796875 156.945312 178.949219 C 157.070312 179.398438 157.195312 179.851562 157.3125 180.300781 C 157.351562 180.453125 157.386719 180.597656 157.421875 180.75 L 157.730469 182.097656 C 157.761719 182.25 157.796875 182.398438 157.824219 182.546875 L 158.078125 183.898438 L 158.34375 185.695312 C 158.363281 185.847656 158.378906 185.996094 158.398438 186.148438 L 158.53125 187.496094 C 158.542969 187.648438 158.554688 187.792969 158.566406 187.945312 L 158.667969 189.746094 L 158.667969 192.894531 C 158.660156 193.046875 158.65625 193.191406 158.648438 193.34375 C 158.625 193.792969 158.601562 194.242188 158.566406 194.691406 C 158.554688 194.84375 158.542969 194.992188 158.53125 195.140625 C 158.492188 195.59375 158.445312 196.042969 158.390625 196.492188 C 158.375 196.644531 158.355469 196.789062 158.332031 196.941406 C 158.273438 197.390625 158.210938 197.839844 158.136719 198.289062 C 158.113281 198.441406 158.089844 198.589844 158.058594 198.742188 L 157.800781 200.089844 L 157.394531 201.890625 L 157.03125 203.238281 L 156.621094 204.585938 C 156.574219 204.738281 156.523438 204.886719 156.476562 205.035156 C 156.324219 205.488281 156.167969 205.9375 156.003906 206.386719 L 155.746094 207.0625 L 154.90625 209.089844 C 154.839844 209.242188 154.769531 209.390625 154.699219 209.539062 L 154.050781 210.890625 C 153.898438 211.195312 153.75 211.492188 153.585938 211.789062 L 152.824219 213.164062 L 151.453125 215.386719 C 151.351562 215.539062 151.253906 215.683594 151.15625 215.835938 L 150.203125 217.1875 L 149.070312 218.664062 L 148.929688 218.832031 L 148.054688 219.886719 C 147.925781 220.039062 147.789062 220.1875 147.660156 220.335938 L 147.257812 220.785156 L 145.792969 222.320312 L 144.578125 223.484375 L 144.082031 223.933594 L 143.042969 224.832031 C 142.488281 225.300781 141.917969 225.75 141.347656 226.183594 L 140.113281 227.082031 L 138.953125 227.871094 L 136.5625 229.332031 L 133.035156 231.128906 C 131.515625 231.820312 129.976562 232.421875 128.386719 232.929688 L 126.214844 233.570312 L 123.132812 234.277344 C 121.582031 234.574219 120.015625 234.792969 118.433594 234.921875 C 115.429688 235.164062 112.457031 235.105469 109.441406 234.726562 C 107.660156 234.503906 106.21875 234.226562 104.542969 233.828125 L 102.832031 233.371094 C 101.03125 232.859375 99.546875 232.308594 97.71875 231.554688 L 94.886719 230.222656 L 92.363281 228.804688 L 92.316406 228.777344 L 90.472656 227.605469 L 89.0625 226.625 C 88.660156 226.332031 88.261719 226.035156 87.871094 225.726562 L 85.710938 223.925781 L 83.800781 222.128906 C 83.65625 221.980469 83.503906 221.832031 83.355469 221.679688 L 81.324219 219.429688 C 81.195312 219.277344 81.074219 219.132812 80.949219 218.980469 L 80.230469 218.074219 L 80.074219 217.871094 L 78.597656 215.824219 L 78 214.925781 C 77.902344 214.773438 77.808594 214.628906 77.714844 214.476562 L 77.449219 214.054688 L 76.644531 212.675781 L 76.394531 212.226562 L 75.5 210.5 L 74.40625 208.09375 L 73.730469 206.375 L 73.257812 205.027344 C 73.203125 204.875 73.15625 204.726562 73.109375 204.574219 L 72.832031 203.675781 L 72.503906 202.515625 L 72.023438 200.527344 C 71.988281 200.375 71.960938 200.222656 71.929688 200.078125 L 71.398438 196.929688 C 71.382812 196.777344 71.359375 196.632812 71.339844 196.480469 L 71.078125 193.332031 C 71.074219 193.179688 71.066406 193.035156 71.0625 192.882812 L 71.054688 189.734375 C 71.0625 189.582031 71.066406 189.429688 71.074219 189.285156 L 71.277344 186.585938 L 71.328125 186.136719 C 71.347656 185.984375 71.363281 185.835938 71.382812 185.683594 L 71.417969 185.441406 L 71.734375 183.4375 C 71.761719 183.285156 71.789062 183.132812 71.8125 182.988281 L 72.542969 179.839844 C 72.585938 179.6875 72.625 179.535156 72.667969 179.386719 L 72.972656 178.359375 L 73.6875 176.234375 C 73.742188 176.082031 73.800781 175.9375 73.859375 175.785156 L 74.636719 173.867188 L 74.78125 173.53125 L 75.042969 172.953125 L 75.632812 171.730469 C 75.710938 171.578125 75.785156 171.433594 75.863281 171.28125 L 76.097656 170.832031 L 77.054688 169.109375 L 77.042969 169.097656 L 77.363281 168.578125 L 98.414062 132.121094 L 102.917969 124.324219 L 103.058594 124.085938 Z M 103 124.109375 " fill-opacity="1" fill-rule="evenodd"/></g><g fill="#004aad" fill-opacity="1"><g transform="translate(12.042609, 333.302782)"><g><path d="M 23.636719 -52.09375 C 12.671875 -52.09375 6.222656 -43.644531 4.519531 -17.414062 C 4.296875 -14.003906 4.222656 -10.375 4.148438 -6.371094 C 4.074219 -2.222656 6.296875 0 10.300781 0 C 14.300781 0 16.523438 -2.222656 16.523438 -6.296875 C 16.523438 -8.152344 16.597656 -9.855469 16.597656 -11.484375 L 29.714844 -11.484375 C 29.789062 -9.632812 29.789062 -7.78125 29.789062 -5.78125 C 29.789062 -2 32.011719 0 36.085938 0 L 37.199219 0 C 41.273438 0 43.5 -2.371094 43.425781 -6.667969 C 42.90625 -41.347656 36.53125 -52.09375 23.636719 -52.09375 Z M 16.746094 -20.304688 C 17.265625 -36.902344 18.820312 -41.644531 22.601562 -41.644531 C 26.304688 -41.644531 28.53125 -36.902344 29.417969 -20.304688 Z M 16.746094 -20.304688 "/></g></g></g><g fill="#004aad" fill-opacity="1"><g transform="translate(74.574017, 333.302782)"><g><path d="M 41.570312 -46.386719 C 41.570312 -49.648438 39.347656 -51.351562 35.273438 -51.351562 L 8.152344 -51.351562 C 4.074219 -51.351562 1.851562 -49.574219 1.851562 -46.386719 C 1.851562 -43.203125 4.074219 -41.347656 8.226562 -41.347656 C 10.449219 -41.421875 12.597656 -41.421875 14.671875 -41.421875 C 14.671875 -36.234375 14.746094 -30.976562 14.746094 -25.714844 C 14.746094 -19.191406 14.671875 -12.746094 14.597656 -6.296875 C 14.597656 -2.222656 16.820312 0 20.898438 0 L 22.230469 0 C 26.304688 0 28.53125 -2.222656 28.457031 -6.296875 C 28.457031 -12.820312 28.457031 -19.191406 28.457031 -25.714844 L 28.457031 -41.421875 C 30.679688 -41.421875 32.828125 -41.421875 35.199219 -41.347656 C 39.347656 -41.347656 41.570312 -43.203125 41.570312 -46.386719 Z M 41.570312 -46.386719 "/></g></g></g><g fill="#004aad" fill-opacity="1"><g transform="translate(132.95666, 333.302782)"><g><path d="M 19.414062 -9.855469 L 19.414062 -20.453125 C 22.527344 -20.378906 25.640625 -20.378906 28.601562 -20.304688 C 32.679688 -20.304688 34.902344 -22.082031 34.902344 -25.34375 C 34.902344 -28.53125 32.679688 -30.308594 28.601562 -30.308594 C 25.640625 -30.234375 22.527344 -30.234375 19.414062 -30.160156 L 19.414062 -41.496094 C 23.492188 -41.421875 27.640625 -41.421875 31.566406 -41.347656 C 35.644531 -41.347656 37.867188 -43.128906 37.867188 -46.386719 C 37.867188 -49.574219 35.644531 -51.351562 31.566406 -51.351562 L 11.855469 -51.351562 C 7.78125 -51.351562 5.558594 -49.128906 5.632812 -45.054688 C 5.632812 -38.605469 5.707031 -32.160156 5.707031 -25.714844 C 5.707031 -19.265625 5.632812 -12.820312 5.632812 -6.296875 C 5.558594 -2.222656 7.78125 0 11.855469 0 L 32.308594 0 C 36.382812 0 38.605469 -1.777344 38.605469 -5.039062 C 38.605469 -8.226562 36.382812 -10.003906 32.308594 -10.003906 C 28.160156 -9.929688 23.785156 -9.929688 19.414062 -9.855469 Z M 19.414062 -9.855469 "/></g></g></g><g fill="#004aad" fill-opacity="1"><g transform="translate(189.783507, 333.302782)"><g><path d="M 39.273438 -51.351562 C 35.347656 -51.351562 33.347656 -49.054688 33.640625 -44.832031 C 34.160156 -37.867188 34.53125 -30.679688 34.753906 -22.601562 L 34.605469 -22.601562 L 23.046875 -46.683594 C 21.488281 -49.945312 19.191406 -51.351562 15.636719 -51.351562 L 11.855469 -51.351562 C 7.78125 -51.351562 5.558594 -49.128906 5.632812 -45.054688 C 5.707031 -32.085938 5.707031 -19.265625 5.632812 -6.296875 C 5.558594 -2.222656 7.707031 0 11.558594 0 C 15.414062 0 17.414062 -2.296875 17.191406 -6.519531 C 16.597656 -15.414062 16.226562 -23.859375 16.007812 -34.382812 L 16.15625 -34.382812 L 30.457031 -4.667969 C 32.011719 -1.40625 34.308594 0 37.867188 0 L 38.976562 0 C 43.054688 0 45.277344 -2.222656 45.203125 -6.296875 C 45.128906 -19.265625 45.128906 -32.085938 45.203125 -45.054688 C 45.277344 -49.128906 43.203125 -51.351562 39.273438 -51.351562 Z M 39.273438 -51.351562 "/></g></g></g><g fill="#004aad" fill-opacity="1"><g transform="translate(255.574676, 333.302782)"><g><path d="M 23.636719 -52.09375 C 12.671875 -52.09375 6.222656 -43.644531 4.519531 -17.414062 C 4.296875 -14.003906 4.222656 -10.375 4.148438 -6.371094 C 4.074219 -2.222656 6.296875 0 10.300781 0 C 14.300781 0 16.523438 -2.222656 16.523438 -6.296875 C 16.523438 -8.152344 16.597656 -9.855469 16.597656 -11.484375 L 29.714844 -11.484375 C 29.789062 -9.632812 29.789062 -7.78125 29.789062 -5.78125 C 29.789062 -2 32.011719 0 36.085938 0 L 37.199219 0 C 41.273438 0 43.5 -2.371094 43.425781 -6.667969 C 42.90625 -41.347656 36.53125 -52.09375 23.636719 -52.09375 Z M 16.746094 -20.304688 C 17.265625 -36.902344 18.820312 -41.644531 22.601562 -41.644531 C 26.304688 -41.644531 28.53125 -36.902344 29.417969 -20.304688 Z M 16.746094 -20.304688 "/></g></g></g><g fill="#004aad" fill-opacity="1"><g transform="translate(318.106089, 333.302782)"><g><path d="M 21.710938 0.742188 C 35.050781 0.742188 41.941406 -4.59375 41.941406 -14.820312 C 41.941406 -32.605469 17.191406 -24.898438 17.191406 -36.902344 C 17.191406 -40.460938 18.601562 -42.832031 22.898438 -42.832031 C 26.453125 -42.832031 28.53125 -41.792969 29.195312 -38.679688 C 30.085938 -34.53125 31.269531 -32.308594 35.050781 -32.308594 C 38.828125 -32.308594 41.421875 -34.382812 41.125 -38.460938 C 40.460938 -47.203125 34.679688 -52.09375 23.121094 -52.09375 C 11.1875 -52.09375 4.371094 -47.722656 4.371094 -36.605469 C 4.371094 -18.453125 28.011719 -24.230469 28.011719 -13.929688 C 28.011719 -10.894531 26.15625 -9.410156 22.15625 -9.410156 C 19.785156 -9.410156 18.082031 -9.855469 16.96875 -10.894531 C 14.449219 -13.636719 13.78125 -15.785156 10.226562 -15.785156 L 9.558594 -15.785156 C 5.78125 -15.785156 2.964844 -13.414062 4.074219 -9.335938 C 5.929688 -2.742188 11.855469 0.742188 21.710938 0.742188 Z M 21.710938 0.742188 "/></g></g></g></svg>